<svg width="1920" height="1071" viewBox="0 0 1920 997" fill="none" xmlns="http://www.w3.org/2000/svg">
<path d="M714 643C642 571 156.667 767.667 0 901V-75H1922V799C1922 799 1538 1027.8 1412 990C1372 978 1430 915 1378 889C1326 863 848 1032 770 990C692 948 804 733 714 643Z" fill="url(#paint0_linear)"/>
<path d="M780 593C708 521 156.667 755.667 0 889V-75H1922V789C1922 789 1550 990.8 1424 953C1384 941 1456 863 1404 837C1352 811 868 1007 790 965C712 923 870 683 780 593Z" fill="url(#paint1_linear)"/>
<mask id="mask0" mask-type="alpha" maskUnits="userSpaceOnUse" x="-40" y="393" width="2587" height="585">
<path d="M-40 630.832H-18.1882L-3.44729 613.997L12.14 610.642V551.481H22.2451V518.775H27.7143V505.295L33.1966 503.855V484.139L36.986 477.889L39.9289 460.579L42.4552 479.329L44.5648 484.139V504.33L47.5208 511.07V523.585L49.2006 520.69L54.2531 521.655V551.481H72.7834L77.8359 557.241V562.288H82.2634L84.998 559.171L103.945 568.301V615.927H105.208V629.867H115.535V616.402H118.894L122.684 631.545H142.685V624.819H161.216V449.756L172.167 441.101L184.173 439.898V431.956H199.123L198.914 425.468L201.441 422.573H209.436L209.866 425.706L230.922 428.348L231.769 425.706L238.293 425.468L239.139 428.348L241.874 429.788L242.72 446.134L246.51 446.861L246.718 450.721L255.143 450.959L256.823 448.064L274.299 450.231L279.351 455.041L283.987 455.769V514.677L288.831 511.797V505.547L295.772 504.33L304.197 505.547V513.475L307.57 516.845V546.181H313.052L314.732 554.361V601.734L317.258 611.354H328.197V502.415L331.361 498.08H338.106V399.978L340.633 395.168L353.472 393L368.226 396.845L369.268 394.678L384.009 397.81V501.702L385.272 503.855V527.905L386.118 528.87V551.703H388.632V576.244H393.281V587.066H400.013V541.86H417.059L432.021 545.468V593.791H442.543V599.819H458.547V588.981L468.665 585.626H500.035V590.911H502.561L507.405 585.626H520.883V509.867L539.622 504.33H562.579L577.529 508.19V603.174H583.414V600.056H587.634V595.721L589.105 593.316H591.423V583.696L593.52 582.494H597.843V572.28L601.111 568.553H605.526V530.31L616.894 526.703H624.694V522.368L662.38 519.25L675.858 522.13V528.633L674.386 529.835V566.148L688.919 560.848V486.782L688.072 485.579L688.281 472.842L738.402 464.661L762.193 469.471V482.699L760.305 483.174V546.418H766.204L769.355 549.788V565.421H773.562V561.813L776.726 559.646H786.622V562.288H790.724V520.824L793.785 517.32V510.595H796.519V507.952L807.679 489.424V474.519L811.052 477.162V489.914L816.951 503.127L819.256 507.225V512.762H821.782L823.683 518.285V527.43H825.793V574.076H839.049V570.721L842.005 565.911H861.056V524.906L858.426 521.893V518.047H863.687L867.059 514.677V492.794L869.377 490.152V480.294H872.529V473.807L879.066 457.684L880.107 457.446L881.175 443.981L882.647 457.209H883.897L887.27 463.696V469.947L889.796 472.352V481.259H891.489L895.278 484.867V498.807H902.648L917.598 515.88V518.047L925.802 521.893L923.497 524.55V529.108L922.234 530.548V570.231H938.654V527.905L940.972 526.228V520.69L943.186 515.524L946.65 511.56H949.397V506.987L956.559 501.45L959.294 504.82V514.202H961.182L964.138 528.87V594.281H990.247V586.591L993.19 584.661H997.826V582.004L1002.25 580.326H1006.46V576.481H1014.25V582.004H1023.31V543.775L1025.2 541.623H1031.72L1033.83 537.763H1037.41V534.408H1040.15V526.228L1042.05 525.025H1047.73L1050.04 521.655H1064.58V524.773H1075.32V536.085H1078.05V540.168L1089.01 542.573V596.924L1096.79 595.246H1106.27L1109.01 612.794H1114.69V623.855H1122.28V628.19H1129.43V612.082L1130.69 610.642V592.351H1132.17V574.566H1135.12V560.848H1137.23V538.728H1167.96V530.785H1175.97V535.239H1180.92L1182.7 533.19H1185.66V529.108H1213.03V532.478L1218.08 534.155V536.56H1220.4L1238.3 543.775V547.858L1236.61 548.586V550.991L1237.81 552.119V599.567H1240.61V604.065H1243.98V718.839H1256V978H-40V630.832Z" fill="url(#paint2_linear)"/>
<path d="M1251 630.832H1272.81L1287.55 613.997L1303.14 610.642V551.481H1313.25V518.775H1318.71V505.295L1324.2 503.855V484.139L1327.99 477.889L1330.93 460.579L1333.46 479.329L1335.56 484.139V504.33L1338.52 511.07V523.585L1340.2 520.69L1345.25 521.655V551.481H1363.78L1368.84 557.241V562.288H1373.26L1376 559.171L1394.95 568.301V615.927H1396.21V629.867H1406.53V616.402H1409.89L1413.68 631.545H1433.69V624.819H1452.22V449.756L1463.17 441.101L1475.17 439.898V431.956H1490.12L1489.91 425.468L1492.44 422.573H1500.44L1500.87 425.706L1521.92 428.348L1522.77 425.706L1529.29 425.468L1530.14 428.348L1532.87 429.788L1533.72 446.134L1537.51 446.861L1537.72 450.721L1546.14 450.959L1547.82 448.064L1565.3 450.231L1570.35 455.041L1574.99 455.769V514.677L1579.83 511.797V505.547L1586.77 504.33L1595.2 505.547V513.475L1598.57 516.845V546.181H1604.05L1605.73 554.361V601.734L1608.26 611.354H1619.2V502.415L1622.36 498.08H1629.11V399.978L1631.63 395.168L1644.47 393L1659.23 396.845L1660.27 394.678L1675.01 397.81V501.702L1676.27 503.855V527.905L1677.12 528.87V551.703H1679.63V576.244H1684.28V587.066H1691.01V541.86H1708.06L1723.02 545.468V593.791H1733.54V599.819H1749.55V588.981L1759.66 585.626H1791.03V590.911H1793.56L1798.41 585.626H1811.88V509.867L1830.62 504.33H1853.58L1868.53 508.19V603.174H1874.41V600.056H1878.63V595.721L1880.11 593.316H1882.42V583.696L1884.52 582.494H1888.84V572.28L1892.11 568.553H1896.53V530.31L1907.89 526.703H1915.69V522.368L1953.38 519.25L1966.86 522.13V528.633L1965.39 529.835V566.148L1979.92 560.848V486.782L1979.07 485.579L1979.28 472.842L2029.4 464.661L2053.19 469.471V482.699L2051.31 483.174V546.418H2057.2L2060.36 549.788V565.421H2064.56V561.813L2067.73 559.646H2077.62V562.288H2081.72V520.824L2084.78 517.32V510.595H2087.52V507.952L2098.68 489.424V474.519L2102.05 477.162V489.914L2107.95 503.127L2110.26 507.225V512.762H2112.78L2114.68 518.285V527.43H2116.79V574.076H2130.05V570.721L2133.01 565.911H2152.06V524.906L2149.43 521.893V518.047H2154.69L2158.06 514.677V492.794L2160.38 490.152V480.294H2163.53V473.807L2170.07 457.684L2171.11 457.446L2172.18 443.981L2173.65 457.209H2174.9L2178.27 463.696V469.947L2180.8 472.352V481.259H2182.49L2186.28 484.867V498.807H2193.65L2208.6 515.88V518.047L2216.8 521.893L2214.5 524.55V529.108L2213.23 530.548V570.231H2229.65V527.905L2231.97 526.228V520.69L2234.19 515.524L2237.65 511.56H2240.4V506.987L2247.56 501.45L2250.29 504.82V514.202H2252.18L2255.14 528.87V594.281H2281.25V586.591L2284.19 584.661H2288.83V582.004L2293.25 580.326H2297.46V576.481H2305.25V582.004H2314.31V543.775L2316.2 541.623H2322.72L2324.83 537.763H2328.41V534.408H2331.15V526.228L2333.05 525.025H2338.73L2341.04 521.655H2355.58V524.773H2366.32V536.085H2369.05V540.168L2380.01 542.573V596.924L2387.79 595.246H2397.27L2400.01 612.794H2405.69V623.855H2413.28V628.19H2420.43V612.082L2421.69 610.642V592.351H2423.17V574.566H2426.12V560.848H2428.23V538.728H2458.96V530.785H2466.97V535.239H2471.92L2473.7 533.19H2476.66V529.108H2504.03V532.478L2509.08 534.155V536.56H2511.4L2529.3 543.775V547.858L2527.61 548.586V550.991L2528.81 552.119V599.567H2531.61V604.065H2534.98V718.839H2547V978H1251V630.832Z" fill="url(#paint3_linear)"/>
</mask>
<g mask="url(#mask0)">
<path d="M780 593C708 521 156.667 755.667 6.10352e-05 889V-75H1922V789C1922 789 1550 990.8 1424 953C1384 941 1456 863 1404 837C1352 811 868 1007 790 965C712 923 870 683 780 593Z" fill="#91D0F3"/>
</g>
<defs>
<linearGradient id="paint0_linear" x1="4.7894e-06" y1="896" x2="1922" y2="896" gradientUnits="userSpaceOnUse">
<stop stop-color="#1287E2"/>
<stop offset="0.494792" stop-color="#2D9CDB"/>
<stop offset="1" stop-color="#1287E2"/>
</linearGradient>
<linearGradient id="paint1_linear" x1="5.00009" y1="5" x2="4.99954" y2="832" gradientUnits="userSpaceOnUse">
<stop stop-color="#FDFEFF"/>
<stop offset="1" stop-color="#72CCFF"/>
</linearGradient>
<linearGradient id="paint2_linear" x1="607.998" y1="891.565" x2="607.998" y2="228.938" gradientUnits="userSpaceOnUse">
<stop stop-color="white"/>
<stop offset="0.3628" stop-color="#0071BB"/>
<stop offset="0.3641" stop-color="#0071BB"/>
<stop offset="0.5178" stop-color="#004989"/>
<stop offset="0.663" stop-color="#002963"/>
<stop offset="0.796" stop-color="#001347"/>
<stop offset="0.9126" stop-color="#000536"/>
<stop offset="1" stop-color="#000030"/>
</linearGradient>
<linearGradient id="paint3_linear" x1="1899" y1="891.565" x2="1899" y2="228.938" gradientUnits="userSpaceOnUse">
<stop stop-color="white"/>
<stop offset="0.3628" stop-color="#0071BB"/>
<stop offset="0.3641" stop-color="#0071BB"/>
<stop offset="0.5178" stop-color="#004989"/>
<stop offset="0.663" stop-color="#002963"/>
<stop offset="0.796" stop-color="#001347"/>
<stop offset="0.9126" stop-color="#000536"/>
<stop offset="1" stop-color="#000030"/>
</linearGradient>
</defs>
</svg>
