<svg width="923" height="1146" viewBox="0 0 923 1146" fill="none" xmlns="http://www.w3.org/2000/svg">
<path d="M334.23 815.801C300.526 782.097 73.3372 874.158 0 936.573V479.698H899.707V888.826C899.707 888.826 719.953 995.929 660.971 978.235C642.247 972.617 669.397 943.127 645.055 930.956C620.714 918.785 396.957 997.895 360.445 978.235C323.932 958.574 376.36 857.931 334.23 815.801Z" fill="url(#paint0_linear)"/>
<path d="M365.126 792.395C331.422 758.691 73.3372 868.541 0 930.956V0H899.707V884.145C899.707 884.145 725.57 978.609 666.588 960.915C647.864 955.297 681.568 918.785 657.226 906.614C632.884 894.443 406.319 986.193 369.807 966.532C333.294 946.871 407.255 834.525 365.126 792.395Z" fill="url(#paint1_linear)"/>
<mask id="mask0" mask-type="alpha" maskUnits="userSpaceOnUse" x="82" y="561" width="841" height="585">
<path d="M82.2756 715.15H96.4129L105.967 704.239L116.07 702.064V663.719H122.62V642.521H126.165V633.784L129.718 632.85V620.072L132.174 616.021L134.081 604.801L135.719 616.954L137.086 620.072V633.158L139.002 637.527V645.638L140.091 643.762L143.366 644.388V663.719H155.376L158.651 667.452V670.724H161.52L163.293 668.703L175.573 674.621V705.49H176.392V714.525H183.085V705.797H185.263L187.719 715.612H200.683V711.253H212.693V597.786L219.791 592.176L227.573 591.397V586.249H237.263L237.128 582.044L238.765 580.168H243.947L244.226 582.198L257.873 583.911L258.422 582.198L262.651 582.044L263.199 583.911L264.972 584.844L265.52 595.438L267.976 595.91L268.111 598.412L273.572 598.566L274.661 596.689L285.988 598.094L289.262 601.212L292.267 601.683V639.865L295.407 637.998V633.947L299.906 633.158L305.366 633.947V639.086L307.552 641.27V660.284H311.106L312.194 665.586V696.291L313.832 702.526H320.922V631.917L322.973 629.107H327.345V565.523L328.982 562.405L337.304 561L346.867 563.492L347.542 562.087L357.096 564.118V631.455L357.915 632.85V648.439L358.463 649.064V663.863H360.092V679.769H363.106V686.784H367.469V657.484H378.517L388.215 659.822V691.143H395.035V695.049H405.408V688.025L411.966 685.85H432.298V689.276H433.936L437.075 685.85H445.811V636.747L457.956 633.158H472.836L482.526 635.66V697.224H486.341V695.203H489.075V692.394L490.029 690.835H491.531V684.599L492.89 683.82H495.692V677.2L497.811 674.785H500.672V649.997L508.04 647.659H513.096V644.849L537.522 642.829L546.257 644.695V648.91L545.304 649.689V673.226L554.723 669.791V621.785L554.174 621.005L554.309 612.749L586.796 607.447L602.216 610.565V619.138L600.992 619.446V660.438H604.815L606.858 662.622V672.754H609.584V670.416L611.635 669.011H618.049V670.724H620.708V643.849L622.692 641.578V637.219H624.464V635.506L631.697 623.497V613.836L633.883 615.549V623.815L637.707 632.379L639.201 635.035V638.624H640.838L642.07 642.203V648.131H643.438V678.364H652.03V676.189L653.946 673.072H666.294V646.495L664.589 644.541V642.049H667.998L670.184 639.865V625.682L671.687 623.969V617.58H673.729V613.375L677.966 602.925L678.642 602.771L679.334 594.043L680.287 602.617H681.098L683.284 606.822V610.873L684.921 612.432V618.205H686.018L688.474 620.543V629.579H693.251L702.941 640.644V642.049L708.258 644.541L706.764 646.264V649.218L705.946 650.151V675.872H716.589V648.439L718.091 647.351V643.762L719.526 640.413L721.771 637.844H723.552V634.881L728.194 631.291L729.966 633.476V639.557H731.19L733.106 649.064V691.46H750.029V686.476L751.936 685.225H754.941V683.502L757.81 682.415H760.537V679.923H765.584V683.502H771.458V658.725L772.682 657.33H776.91L778.278 654.828H780.599V652.653H782.371V647.351L783.604 646.572H787.283L788.786 644.388H798.205V646.408H805.168V653.74H806.941V656.387L814.039 657.945V693.173L819.086 692.086H825.23L827.003 703.459H830.683V710.628H835.603V713.438H840.237V702.997L841.056 702.064V690.209H842.018V678.682H843.926V669.791H845.293V655.453H865.212V650.305H870.402V653.192H873.61L874.766 651.864H876.682V649.218H894.423V651.402L897.698 652.49V654.048H899.2L910.805 658.725V661.371L909.708 661.842V663.401L910.485 664.133V694.886H912.299V697.801H914.485V772.192H922.276V1146H82.2756V715.15Z" fill="url(#paint2_linear)"/>
</mask>
<g mask="url(#mask0)">
<path d="M365.126 792.395C331.422 758.691 73.3372 868.541 0 930.956V39H899.707V884.145C899.707 884.145 725.57 978.609 666.588 960.915C647.864 955.297 681.568 918.785 657.226 906.614C632.884 894.443 406.319 986.193 369.807 966.532C333.294 946.871 407.255 834.525 365.126 792.395Z" fill="#91D0F3"/>
</g>
<defs>
<linearGradient id="paint0_linear" x1="2.24196e-06" y1="934.232" x2="899.707" y2="934.232" gradientUnits="userSpaceOnUse">
<stop stop-color="#1287E2"/>
<stop offset="0.494792" stop-color="#2D9CDB"/>
<stop offset="1" stop-color="#1287E2"/>
</linearGradient>
<linearGradient id="paint1_linear" x1="413.276" y1="39" x2="410.275" y2="975" gradientUnits="userSpaceOnUse">
<stop stop-color="#FDFEFF"/>
<stop offset="1" stop-color="#72CCFF"/>
</linearGradient>
<linearGradient id="paint2_linear" x1="502.274" y1="884.144" x2="502.274" y2="454.663" gradientUnits="userSpaceOnUse">
<stop stop-color="white"/>
<stop offset="0.3628" stop-color="#0071BB"/>
<stop offset="0.3641" stop-color="#0071BB"/>
<stop offset="0.5178" stop-color="#004989"/>
<stop offset="0.663" stop-color="#002963"/>
<stop offset="0.796" stop-color="#001347"/>
<stop offset="0.9126" stop-color="#000536"/>
<stop offset="1" stop-color="#000030"/>
</linearGradient>
</defs>
</svg>
