<svg width="816" height="566" viewBox="0 0 816 566" fill="none" xmlns="http://www.w3.org/2000/svg">
<path d="M295.954 250.929C272.423 228.266 81.0756 276.462 0 296.634V536.582C13.6071 530.658 47.4777 518.975 77.3903 516.269C119.487 512.46 213.791 586.765 263.212 560.281C312.963 533.62 606.791 579.747 631.029 555.626C655.266 531.504 711.396 521.347 757.319 545.469C794.059 564.767 813.307 548.573 816 542.507V250.929C688.292 269.973 668.023 291.979 553.638 291.979C529.52 291.979 463.823 270.944 426.072 263.625C360.588 250.929 339.327 297.903 308.286 280.552C298.646 275.164 309.136 263.625 295.954 250.929Z" fill="#E5E5E5"/>
<path d="M295.954 5.9286C272.423 -16.7325 81.0756 31.4588 0 51.629V533.48C13.6071 527.556 47.4777 509.951 77.3903 507.245C119.487 503.436 209.113 570.118 258.535 543.635C308.286 516.977 606.791 570.717 631.029 546.598C655.266 522.478 716.073 503.436 761.997 527.556C798.736 546.852 813.307 539.545 816 533.48V5.92866C688.292 24.9705 668.023 46.9743 553.638 46.9743C529.52 46.9743 463.823 25.9416 426.072 18.6232C360.588 5.92867 339.327 52.8984 308.286 35.5492C298.646 30.1616 309.136 18.6232 295.954 5.9286Z" fill="#EEEDED"/>
</svg>
