<svg width="52" height="44" viewBox="0 0 52 44" fill="none" xmlns="http://www.w3.org/2000/svg">
<path d="M51.1184 1.55951L43.0332 42.1684C43.0332 42.1684 41.9019 44.9852 38.793 43.6334L20.1363 29.384L13.352 26.1178L1.93234 22.2872C1.93234 22.2872 0.180303 21.6671 0.0106961 20.3153C-0.158911 18.9636 1.99001 18.2319 1.99001 18.2319L47.3887 0.489919C47.387 0.488229 51.1184 -1.14404 51.1184 1.55951Z" fill="white"/>
<path d="M18.7026 41.7121C18.7026 41.7121 18.1582 41.6614 17.4797 39.5205C16.8013 37.3797 13.3532 26.116 13.3532 26.116L40.7719 8.76773C40.7719 8.76773 42.3543 7.80966 42.2983 8.76773C42.2983 8.76773 42.5816 8.9367 41.7335 9.7258C40.8855 10.5149 20.1935 29.0443 20.1935 29.0443" fill="#D3E6F2"/>
<path d="M27.2898 34.8468L19.9102 41.5499C19.9102 41.5499 19.3335 41.9859 18.7026 41.7121L20.1154 29.2606" fill="#B6D0E5"/>
</svg>
